<svg xmlns="http://www.w3.org/2000/svg" width="99.9" height="58.737"><defs><clipPath id="a"><path d="M0 0h799v469.87H0V0z"/></clipPath></defs><g><g><g><g clip-path="url(#a)" transform="matrix(.125 0 0 -.125 0 58.737)"><path d="M314.95 294.84h-7.743v-20.656h7.742v20.656zm169.347 0h7.746v-20.656h-7.746v20.656zm-15.067 0h7.762v-20.668h-2.12l-5.642 5.88v14.788zm44.735 0h7.754v-20.656h-7.755v20.656zm-15.047 0h7.742v-20.656h-7.742v20.656zm-168.902 0h-7.758v-20.668h2.113l5.646 5.88v14.788zm-44.735 0h-7.757v-20.656h7.758v20.656zm15.048 0h-7.746v-20.656h7.746v20.656zm45.168 0h-7.758v-7.668l7.758 6.676v.992zm-26.82-83.528c3.558-3.953 7.043-7.796 11.367-11.292H210.22v11.292h108.456zm122.554 84.555c-16.242 13.43-32.617 26.977-41.523 42.024-8.97-14.855-25.227-28.3-41.355-41.652-13.38-11.058-26.688-22.062-35.243-33.426-13.778-18.292-15.044-38.17 16.995-62.636 3.094-.156 6.118-.164 9.125-.176l2.915-.012c-30.215 35.903-15.45 62.176 5.35 81.887 6.82 6.465 14.25 12.148 20.88 17.22 9.71 7.428 17.61 13.467 18.266 17.546l3.08 19.212 3.264-19.188c.633-3.726 8.332-9.484 17.922-16.648 7.024-5.258 15.032-11.24 22.336-18.16 20.78-19.692 35.196-46.063 4.805-81.868 3.69-.023 7.14.074 11.1.18 32.044 24.477 30.814 44.29 17.103 62.492-8.496 11.29-21.707 22.21-35.02 33.207zm145.157-95.847H469.23c3.946 3.382 7.958 7.32 11.368 11.292h105.79V200.02zM453.75 294.84h7.754v-7.668l-7.754 6.676v.992zm-95.97 9.297h-20.807v50.39H458.43v-50.39h-17.075c-16.082 13.347-31.636 26.88-38.425 41.355v.03l-.285.59-2.91 6.122-2.9-6.1-.077-.173-.016-.022c-6.88-14.622-22.676-28.293-38.96-41.8zm-87.807-29.578l-66.2-56.794v-24.192h22.3V143.31h9.65v50.264h131.023l-4.894 5.203c-33.036 34.86-19.473 59.91.082 78.434 6.55 6.224 13.836 11.794 20.34 16.77l.226.168.13.094.09.074.225.172.028.02.19.148.157.117.07.05.215.165.055.05.164.122.18.145.04.027.218.164.086.066.34.262.003.004.22.168.113.082.106.082.214.168.015.016.2.148.13.106.29.222.043.035.168.125.165.13.047.038.207.16.078.055.132.11.192.148.02.017.21.16.098.074.105.09.207.16.008.005.195.152.13.098.077.063.2.16.04.03.167.134.143.117.055.038.2.16.062.047.136.113.176.137.028.016.195.16.086.067.114.09.195.156.195.157.105.085.09.07.188.157.027.02.172.136.13.11.053.047.192.156.047.04.14.113.155.133.036.023.188.156.067.058.117.094.176.144.01.008.18.153.1.086.084.065.176.152.024.016.164.14.113.098.062.056.18.148.034.036.14.117.138.117.04.035.175.148.057.05.113.098.157.14.015.012.168.153.086.067.086.082.168.15.008.005.16.145.102.086.062.058.164.153c1.98 1.793 3.672 3.52 4.996 5.218 1.47-1.765 3.36-3.59 5.567-5.476l.01-.017.055-.05.11-.086.04-.036.116-.1.17-.133.092-.09.06-.047.167-.14.038-.032.125-.105.14-.117.028-.02.165-.14.078-.067.09-.07.164-.142.024-.01.157-.126.113-.102.05-.04.177-.136.058-.047.11-.093.164-.137.01-.004.172-.145.102-.078.074-.054.18-.145.04-.026.136-.114.144-.117.04-.023.175-.145.078-.062.1-.078.182-.14.012-.013.164-.132.13-.098.058-.04.183-.148.062-.043.125-.1.168-.133.015-.012.188-.14.097-.078.086-.07.19-.145.038-.024.144-.117.16-.116.04-.03.183-.146.078-.062.118-.086.184-.145.012-.008.184-.14.128-.098.07-.048.192-.148.05-.043.145-.1.176-.138.025-.015.19-.15.103-.08.093-.067.2-.152.028-.02.168-.13.152-.112.05-.035.196-.152.078-.058.126-.086.2-.152.007-.004.195-.15.13-.096.077-.055.19-.156.064-.038.145-.114.188-.13.015-.018.207-.152.11-.08.097-.077.204-.155.03-.02.177-.132.156-.118.058-.04.203-.155.08-.055.128-.093.203-.16c6.927-5.172 14.805-11.063 21.76-17.657 19.444-18.433 32.628-43.457-.126-78.015l-5.372-5.633c43.934.027 88.27.027 132.293.027v-49.687h9.65v49.687h17.577v24.156l-62.383 58.15c.058.155.085.33.085.51v24.137c0 .04-.015.078-.015.12v2.373c4.253 1.078 7.41 4.918 7.41 9.507 0 5.434-4.407 9.832-9.825 9.832-5.43.003-9.835-4.4-9.835-9.833 0-4.578 3.156-8.425 7.414-9.504v-1.25h-54.33v55.704H499.2l-56.79 24.375-22.312 33.753-22.88 34.633c5.266.176 9.493 4.5 9.493 9.81 0 5.43-4.4 9.823-9.823 9.823-5.422 0-9.825-4.397-9.825-9.823.004-5.324 4.247-9.66 9.543-9.81l-22.878-34.632-22.3-33.75-56.802-24.378h29.402V301.06h-49.183v1.53c4.258 1.07 7.414 4.93 7.414 9.523 0 5.426-4.406 9.825-9.832 9.825-5.422 0-9.82-4.4-9.82-9.825 0-4.593 3.152-8.453 7.414-9.523v-1.53h-.047v-26.5zm-9.446-130.673c0 10.207 4.145 19.453 10.84 26.14v.032c6.695 6.698 15.945 10.846 26.16 10.846 10.2 0 19.453-4.148 26.164-10.855l.01.01c6.695-6.7 10.843-15.95 10.843-26.173h-12.895c0 6.672-2.7 12.707-7.058 17.058v.024c-4.348 4.342-10.38 7.038-17.063 7.038-6.66 0-12.687-2.696-17.054-7.063l-.004.012c-4.36-4.355-7.056-10.39-7.056-17.07h-12.887zm207.56 0c0 10.207 4.14 19.453 10.84 26.14v.032c6.686 6.698 15.944 10.846 26.17 10.846 10.184 0 19.446-4.148 26.14-10.855l.025.01c6.707-6.7 10.84-15.95 10.84-26.173H529.22c0 6.672-2.716 12.707-7.072 17.058v.024c-4.355 4.342-10.39 7.038-17.05 7.038-6.668 0-12.688-2.696-17.05-7.063l-.02.012c-4.344-4.355-7.06-10.39-7.06-17.07h-12.882zm-104.18 0c0 10.207 4.144 19.453 10.843 26.14v.032c6.695 6.698 15.953 10.846 26.168 10.846s19.465-4.148 26.172-10.847c6.687-6.7 10.84-15.95 10.84-26.173h-12.903c0 6.672-2.69 12.707-7.047 17.058-4.367 4.367-10.402 7.063-17.062 7.063-6.664 0-12.695-2.696-17.063-7.063l-.007.012c-4.352-4.355-7.05-10.39-7.05-17.07h-12.892zm79.648-75.813c2.01 14.7-2.266 31.21-8.38 37.512-3.405 3.84-8.437 5.754-15.058 5.754-5.437 0-9.875-1.73-13.332-5.22-3.465-3.452-5.98-7.917-7.547-13.386-1.57-5.46-2.35-11.113-2.35-16.98.003-2.668.143-5.22.436-7.68h46.23zm-45.707-6.804c1.156-7.293 2.527-13.438 4.066-18.426 1.73-5.735 2.94-10.246 3.652-13.547.735-3.28 1.075-7.54 1.075-12.766 0-2.928-.535-5.788-1.62-8.6 1.496-.735 3.496-1.106 5.988-1.106 9.375 0 16.414 2.46 21.148 7.375 7.27 7.57 14.817 16.96.91 16.96v6.653h42.52V31.16c-9.895-.262-11.145-9.05-18.28-15.848-4.982-4.753-10.53-8.488-16.583-11.218C434.668 1.354 428.496 0 422.195 0c-4.324 0-9.01.254-14.004.742-5.03.488-9.225 1.27-12.604 2.324.19 1.946.297 3.352.297 4.24 0 3.866-.84 7.44-2.52 10.69-1.668 3.234-4.133 6.84-7.38 10.735-4.97 6.106-8.702 11.14-11.186 15.086-2.492 3.977-4.172 7.57-5.012 10.793-.86 3.21-1.29 6.972-1.29 11.296 0 12.578 2.814 22.805 8.458 30.664 5.625 7.856 12.656 13.403 21.094 16.672 8.406 3.262 17.07 4.91 25.945 4.91 5.422 0 11.028-.703 16.8-2.105 5.83-1.38 11.278-3.97 16.454-7.766 11.914-8.73 15.293-26.647 16.72-40.206h.018V61.27h-76.136zm-97.2-23.625V17.96c-.128-13.292 8.77-10.565 13.47-11.136V0H262.03v6.824c6.146.254 13.497-1.922 13.466 10.696v48.69c0 8.438.168 16.68.488 24.688 3.196 7.762 8.328 13.875 15.418 18.313 7.11 4.462 14.985 6.68 23.688 6.68 8.57 0 15.96-1.437 22.152-4.28 6.192-2.872 10.863-6.758 14.086-11.74 3.22-4.936 4.817-10.456 4.817-16.464 0-8.75-4.172-28.472-13.418-33.047-4.192-2.762-8.872-4.11-14.004-4.11-2.653 0-4.762.293-6.328.88-1.54.573-3.895 1.686-7.008 3.308-1.676.84-2.864 1.425-3.57 1.79l-11.17-14.583zm0 9.707l10.387 13.144c.996-.777 2.11-1.453 3.3-1.96 1.188-.528 2.08-.763 2.677-.763 2.566 0 4.976 1.4 7.218 4.24 2.25 2.84 3.352 13.905 3.352 21.737 0 7.82-.94 13.984-2.863 18.535-1.927 4.512-5.52 6.785-10.794 6.785-3.977 0-6.922-1.414-8.867-4.246-1.92-2.812-3.165-6.3-3.654-10.41-.515-4.11-.758-9.308-.758-15.527V47.352zm-80.37 20.722c1.995 14.7-2.274 31.21-8.383 37.512-3.41 3.84-8.438 5.754-15.063 5.754-5.437 0-9.867-1.73-13.336-5.22-3.457-3.452-5.973-7.917-7.54-13.386-1.57-5.46-2.35-11.113-2.35-16.98 0-2.668.144-5.22.433-7.68h46.237zM174.56 61.27c1.16-7.293 2.54-13.438 4.07-18.426 1.735-5.735 2.95-10.246 3.653-13.547.727-3.28 1.078-7.54 1.078-12.766 0-2.928-.543-5.788-1.62-8.6 1.487-.735 3.487-1.106 5.972-1.106 9.387 0 16.422 2.46 21.148 7.375 7.282 7.57 14.832 16.96.926 16.96v6.653h42.51V31.16c-9.882-.262-11.144-9.05-18.284-15.848-4.977-4.753-10.52-8.488-16.578-11.218C211.383 1.354 205.215 0 198.914 0c-4.324 0-9.004.254-14.008.742-5.027.488-9.222 1.27-12.6 2.324.19 1.946.296 3.352.296 4.24 0 3.866-.832 7.44-2.512 10.69-1.676 3.234-4.137 6.84-7.387 10.735-4.976 6.106-8.71 11.14-11.195 15.086-2.485 3.977-4.164 7.57-5.004 10.793-.86 3.21-1.3 6.972-1.3 11.296 0 12.578 2.82 22.805 8.468 30.664 5.63 7.856 12.656 13.403 21.094 16.672 8.41 3.262 17.066 4.91 25.933 4.91 5.437 0 11.034-.703 16.82-2.105 5.82-1.38 11.28-3.97 16.44-7.766 11.93-8.73 15.302-26.647 16.72-40.206h.027V61.27h-76.145zM551.008 8.613L533.3 91.055c-4.12-6.375-7.546-12.37-10.253-18.008-2.735-5.645-4.785-11.238-6.16-16.824-1.38-5.57-2.082-11.274-2.082-17.114 0-3.497.35-8.466 1.074-14.9.74-6.437 1.14-10.46 1.21-12.03V4.062c-.176-1.7-.945-2.832-2.285-3.41-.99-.425-2.168-.652-3.575-.652-1.296 0-3.25.227-5.84.652-.988.09-2.37.14-4.238.14-2.265 0-4.01-.05-5.214-.14-1.74-.203-2.88-.32-3.387-.32-2.003 0-3.44.78-4.327 2.324-.9 1.57-1.36 4.68-1.36 9.356 0 7.96 1.098 15.13 3.227 21.472 2.13 6.36 4.832 12.035 8.074 17.043 3.254 4.98 7.988 11.63 14.2 19.922 6.08 8.194 10.448 14.718 13.085 19.472 2.655 4.785 4.1 9.656 3.976 14.61-.102 4.714-9.465 4.198-12.336 4.023v6.816h46.387v-6.815h-9.063l20.598-95.246 18.023 95.245h-7.176v6.816h43.66v-6.815h-10.555l21.79-99.942H651.9V1.785h-43.464v6.828h7.128l-18.34 85.364-15.87-85.364h8.593V1.785h-47.372v6.828h8.43zm196.746 208.82l-.305-13.542h-18.063l.156-75.316c5.918-7.363 13.387-13.27 22.398-17.78 9.03-4.505 17.384-6.79 25.08-6.79 1.875 0 4.875.207 8.937.625 5.703 0 9.324-1.66 10.93-5.028 1.55-3.313 2.36-8.39 2.36-15.188V22.54c0-6.57-.548-11.446-1.642-14.618-1.12-3.215-2.54-5.18-4.277-5.957C791.62 1.19 789.21.78 786.172.78H672.297v13.06h19.988l-.137 190.05h-14.375c-8.183 0-15.71.473-21.19-18.43-2.462-8.69-4.552-17.015-6.915-29.198-.84-4.614-1.973-8.235-2.727-10.207-.788-1.914-2.37-2.57-4.628-2.57-2.656 0-5 1.417-5.68 4.484-.655 3.104-1.124 8.425-1.644 15.73-.808 12.765-2.793 14.366-4.676 23.32-.457 2.445-6.367 14.703-6.51 22.582-.103 5.265 3.132 8.988 4.296 9.824 1.18 1.094 3.992 2.082 6.336 1.96 2.35-.113 5.578-1.21 6.125-1.308 5.085-1.457 9.303-2.644 12.245-2.644h94.95zM729.544 13.84h19.597c4.825 0 8.75.984 11.798 2.945 3.027 1.977 4.542 6.79 4.542 14.406v37.064c0 1.863-.042 2.996-.11 3.515-.065.464-.104 1.816-.104 3.945-.11 5.23-.746 8.855-1.82 10.828-1.083 1.926-4.258 4.043-9.508 6.27-9.297 4.2-17.422 10.417-24.395 18.664V13.84zM68.4 12.977v190.3h-15.87c-4.52 0-8.118-.882-10.794-2.632-2.687-1.7-5.238-5.82-7.68-12.247-2.433-6.484-4.996-16.535-7.632-30.222-1.278-6.235-2.32-10.356-3.082-12.406-.754-2.07-2.36-3.043-4.832-3.043-2.805 0-4.645 1.29-5.48 3.804-.84 2.58-1.317 6.075-1.485 10.45-.235 8.508-1.672 17.407-4.31 26.83-.643 2.374-2.007 6.588-4.08 12.624C1.073 202.5 0 206.617 0 208.832c0 3.04.918 5.762 2.715 8.184 1.8 2.418 4.433 3.61 7.914 3.61 1.085 0 3.28-.47 6.56-1.446 3.28-.922 6.755-1.746 10.474-2.317 3.758-.613 8.75-.925 15.03-.925 1.28 0 2.798.046 4.556.156 1.758.1 3.164.156 4.12.156h71.204c1.04 0 2.48-.055 4.242-.156 1.72-.11 3.24-.156 4.434-.156 6.277 0 11.316.312 15.074.925 3.758.57 7.274 1.395 10.555 2.317 3.237.976 5.432 1.445 6.515 1.445 3.48 0 6.117-1.19 7.875-3.61 1.757-2.367 2.675-5.09 2.675-8.183 0-2.312-.996-6.387-2.992-12.047-2.004-5.664-3.398-9.988-4.238-12.976-2.762-9.572-4.277-18.537-4.563-26.83 0-9.52-2.234-14.253-6.672-14.253-1.925 0-3.363.82-4.363 2.41-.996 1.66-1.72 3.554-2.195 5.78-.48 2.15-1.637 7.978-3.516 17.45-2.242 10.656-4.722 18.43-7.32 23.43-2.598 4.93-5.56 8.082-8.875 9.418-3.276 1.387-7.757 2.055-13.308 2.055l-10.316.007v-190.3h19.906V0H48.496v12.977h19.906zm347.875 248.718l-7.43-11.304 20.262-4.167-20.817-4.285 5.164-10.727-9.812 5.708-4.08-21.39-4.217 22.124-12.5-6.898 7.433 11.297-20.26 4.173 20.824 4.285-5.18 10.726 9.824-5.707 4.078 21.387 4.22-22.117 12.49 6.898" fill="#d21e25" fill-rule="evenodd"/></g></g></g></g></svg>