<svg xmlns="http://www.w3.org/2000/svg" viewBox="0 0 178.6 104.5" enable-background="new 0 0 178.6 104.5"><g fill="#EE0600"><path d="M171.9 53.8c-.7.4-1.3.9-1.7 1.6-.4.7-.6 1.5-.6 2.2 0 .8.2 1.5.6 2.2.4.7.9 1.3 1.6 1.6.7.4 1.4.6 2.2.6.8 0 1.5-.2 2.2-.6.7-.4 1.3-.9 1.7-1.6.4-.7.6-1.4.6-2.2 0-.8-.2-1.5-.6-2.2-.4-.7-1-1.3-1.7-1.6-.7-.4-1.4-.6-2.2-.6-.7.1-1.4.3-2.1.6zm4 .8c.6.3 1 .8 1.3 1.3.3.6.5 1.2.5 1.8 0 .6-.2 1.2-.5 1.8-.3.6-.8 1-1.3 1.3-.6.3-1.2.5-1.8.5-.6 0-1.2-.2-1.8-.5-.6-.3-1-.8-1.3-1.3-.3-.6-.5-1.2-.5-1.8 0-.6.2-1.2.5-1.8.3-.6.8-1 1.3-1.3.6-.3 1.2-.5 1.8-.5.6 0 1.2.2 1.8.5zm-2.8 5.5v-1.9h.3c.3 0 .5.1.7.2.2.1.4.5.7 1l.4.8h1.2l-.6-1c-.2-.3-.3-.5-.4-.6-.1-.2-.2-.3-.3-.4-.1-.1-.2-.1-.3-.2.4-.1.7-.2.9-.5.2-.2.3-.5.3-.9 0-.2-.1-.5-.2-.7-.1-.2-.3-.4-.4-.5-.2-.1-.4-.2-.7-.2h-2.5v4.7h.9v.2zm0-4h.4c.6 0 .9 0 1 .1.1 0 .2.1.3.2.1.1.1.2.1.4 0 .1 0 .3-.1.4-.1.1-.2.2-.3.2-.1 0-.5.1-1 .1h-.4v-1.4zM122.5 102.8l-3.9-18.3c-.9 1.4-1.7 2.7-2.3 4-.6 1.3-1.1 2.5-1.4 3.7-.3 1.2-.5 2.5-.5 3.8 0 .8.1 1.9.2 3.3.2 1.4.3 2.1.3 2.5v1.8c0 .4-.2.6-.5.8-.2.1-.5.1-.8.1-.3 0-.7-.1-1.3-.1h-2.1c-.4 0-.6.1-.8.1-.4 0-.8-.2-1-.5-.2-.4-.3-1-.3-2.1 0-1.8.2-3.1.7-4.6.5-1.4 1.1-2.7 1.8-3.8.7-1.1 1.8-2.6 3.2-4.4 1.3-1.8 2.3-3.3 2.9-4.3.6-1.1.9-2.1.9-3.2 0-1-2.1-.9-2.7-.9V79h10.3v1.5h-2l4.6 21.2 4-21.2h-1.6V79h9.7v1.5h-2.3l4.8 22.2h2.5v1.5h-9.7v-1.5h1.6l-4.1-19-3.5 19h1.9v1.5h-10.5v-1.5h1.9v.1zM15.2 101.4V59.1h-3.5c-1 0-1.8.2-2.4.6-.6.4-1.2 1.3-1.7 2.7-.5 1.4-1.1 3.7-1.7 6.7-.3 1.4-.5 2.3-.7 2.8-.2.5-.5.7-1.1.7-.6 0-1-.3-1.2-.8-.2-.6-.3-1.3-.3-2.3-.1-1.9-.4-3.9-1-6-.1-.5-.4-1.5-.9-2.8-.5-1.4-.7-2.3-.7-2.8 0-.7.2-1.3.6-1.8.4-.5 1-.8 1.8-.8.2 0 .7.1 1.5.3.7.2 1.5.4 2.3.5.8.1 1.9.2 3.3.2H29.1c1.4 0 2.5-.1 3.4-.2.8-.1 1.6-.3 2.3-.5.7-.2 1.2-.3 1.5-.3.8 0 1.4.3 1.7.8.4.5.6 1.1.6 1.8 0 .5-.2 1.4-.7 2.7-.4 1.3-.8 2.2-.9 2.9-.6 2.1-1 4.1-1 6 0 2.1-.5 3.2-1.5 3.2-.4 0-.7-.2-1-.5-.2-.4-.4-.8-.5-1.3-.1-.5-.4-1.8-.8-3.9-.5-2.4-1-4.1-1.6-5.2-.6-1.1-1.2-1.8-2-2.1-.7-.3-1.7-.5-3-.5h-2.3v42.3h4.4v2.9H10.8v-2.9h4.4v-.1zM96.3 96.1v1.5c3.1 0 1.4 2.1-.2 3.8-1.1 1.1-2.6 1.6-4.7 1.6-.6 0-1-.1-1.3-.2.2-.6.4-1.3.4-1.9 0-1.2-.1-2.1-.2-2.8-.2-.7-.4-1.7-.8-3-.3-1.1-.6-2.5-.9-4.1h16.9v-1.5c-.3-3-1.1-7-3.7-8.9-1.2-.8-2.4-1.4-3.7-1.7-1.3-.3-2.5-.5-3.7-.5-2 0-3.9.4-5.8 1.1-1.9.7-3.4 2-4.7 3.7-1.3 1.8-1.9 4-1.9 6.8 0 1 .1 1.8.3 2.5.2.7.6 1.5 1.1 2.4.6.9 1.4 2 2.5 3.4.7.9 1.3 1.7 1.6 2.4.4.7.6 1.5.6 2.4 0 .2 0 .5-.1.9.8.2 1.7.4 2.8.5 1.1.1 2.2.2 3.1.2 1.4 0 2.8-.3 4.1-.9 1.3-.6 2.6-1.4 3.7-2.5 1.6-1.5 1.9-3.5 4.1-3.5v-1.5h-9.5v-.2zm-8.1-8.5c0-1.3.2-2.6.5-3.8.3-1.2.9-2.2 1.7-3 .8-.8 1.8-1.2 3-1.2 1.5 0 2.6.4 3.3 1.3 1.4 1.4 2.3 5.1 1.9 8.3H88.3c0-.4-.1-1-.1-1.6zM78.1 82.1c-.7-1.1-1.8-2-3.1-2.6-1.4-.6-3-1-4.9-1-1.9 0-3.7.5-5.3 1.5-1.6 1-2.7 2.3-3.4 4.1-.1 1.8-.1 3.6-.1 5.5v10.8c0 2.8-1.6 2.3-3 2.4v1.5h11.6v-1.5c-1-.1-3 .5-3-2.5v-4.4l2.5-3.2.8.4c.7.4 1.2.6 1.6.7.3.1.8.2 1.4.2 1.1 0 2.2-.3 3.1-.9 2.1-1 3-5.4 3-7.3-.1-1.4-.5-2.6-1.2-3.7zm-6 8.4c-.5.6-1 .9-1.6.9-.1 0-.3-.1-.6-.2s-.5-.3-.7-.4l-2.3 2.9v-7c0-1.4.1-2.5.2-3.5.1-.9.4-1.7.8-2.3.4-.6 1.1-.9 2-.9 1.2 0 2 .5 2.4 1.5.4 1 .6 2.4.6 4.1-.1 1.8-.3 4.3-.8 4.9zM46.6 96.1v1.5c3.1 0 1.4 2.1-.2 3.8-1 1.1-2.6 1.6-4.7 1.6-.6 0-1-.1-1.3-.2.2-.6.4-1.3.4-1.9 0-1.2-.1-2.1-.2-2.8-.2-.7-.4-1.7-.8-3-.3-1.1-.6-2.5-.9-4.1h16.9v-1.5c-.3-3-1.1-7-3.7-8.9-1.1-.8-2.4-1.4-3.7-1.7-1.3-.3-2.5-.5-3.7-.5-2 0-3.9.4-5.8 1.1-1.9.7-3.4 2-4.7 3.7-1.3 1.8-1.9 4-1.9 6.8 0 1 .1 1.8.3 2.5.2.7.6 1.5 1.1 2.4.6.9 1.4 2 2.5 3.4.7.9 1.3 1.7 1.6 2.4.4.7.6 1.5.6 2.4 0 .2 0 .5-.1.9.8.2 1.7.4 2.8.5 1.1.1 2.2.2 3.1.2 1.4 0 2.8-.3 4.1-.9 1.3-.6 2.6-1.4 3.7-2.5 1.6-1.5 1.9-3.5 4.1-3.5v-1.5h-9.5v-.2zm-8-8.5c0-1.3.2-2.6.5-3.8.3-1.2.9-2.2 1.7-3 .8-.8 1.8-1.2 3-1.2 1.5 0 2.6.4 3.4 1.3 1.4 1.4 2.3 5.1 1.9 8.3H38.7c-.1-.4-.1-1-.1-1.6zM177.2 82.3c-.4-.7-1.2-1.1-2.4-1.1-.9.1-1.6.1-2 .1-1.7 0-3.6-.5-5.6-1.5-2-1-3.7-2.3-5-4V59.1h4l.1-3h-21.1c-.7 0-1.6-.3-2.7-.6-.1 0-.8-.3-1.4-.3-.5 0-1.1.2-1.4.4-.3.2-1 1-1 2.2 0 1.8 1.3 4.5 1.4 5 .4 2 .9 2.3 1 5.2.1 1.6.2 2.8.4 3.5.2.7.7 1 1.3 1 .5 0 .9-.1 1-.6.2-.4.4-1.2.6-2.3.5-2.7 1-4.6 1.5-6.5 1.2-4.2 2.9-4.1 4.7-4.1h3.2v42.3h-4.4v2.9h25.3c.7 0 1.2-.1 1.6-.3.4-.2.7-.6 1-1.3.2-.7.4-1.8.4-3.2V85.7c0-1.5-.2-2.6-.5-3.4zm-7 15.2c0 1.7-.3 2.8-1 3.2-.7.4-1.6.7-2.6.7h-4.4V79.7c1.6 1.8 3.4 3.2 5.4 4.2 1.2.5 1.9 1 2.1 1.4.2.4.4 1.2.4 2.4v9.8h.1zM57.5 72.5c0-2.3.9-4.3 2.4-5.8s3.5-2.4 5.8-2.4 4.3.9 5.8 2.4 2.4 3.5 2.4 5.8H71c0-1.5-.6-2.8-1.6-3.8s-2.3-1.6-3.8-1.6-2.8.6-3.8 1.6-1.6 2.3-1.6 3.8h-2.7zM103.7 72.5c0-2.3.9-4.3 2.4-5.8s3.5-2.4 5.8-2.4 4.3.9 5.8 2.4 2.4 3.5 2.4 5.8h-2.9c0-1.5-.6-2.8-1.6-3.8s-2.3-1.6-3.8-1.6-2.8.6-3.8 1.6-1.6 2.3-1.6 3.8h-2.7zM80.6 72.5c0-2.3.9-4.3 2.4-5.8s3.5-2.4 5.8-2.4 4.3.9 5.8 2.4 2.4 3.5 2.4 5.8h-2.9c0-1.5-.6-2.8-1.6-3.8s-2.3-1.6-3.8-1.6-2.8.6-3.8 1.6-1.6 2.3-1.6 3.8h-2.7zM92.6 46.3l-1.7 2.5 4.5.9-4.6 1 1.1 2.4-2.1-1.3-1 4.7-.9-4.9-2.8 1.6 1.7-2.6-4.5-.9 4.6-.9-1.1-2.4 2.1 1.3.9-4.8 1 4.9 2.8-1.5zM118.6 43.5v-6.4c.9-.2 1.7-1.1 1.7-2.1 0-1.2-1-2.2-2.2-2.2-1.2 0-2.2 1-2.2 2.2 0 1 .7 1.9 1.6 2.1v.3h-12.1V25h6.2L99 19.6l-5-7.5-5.1-7.7c1.2 0 2.1-1 2.1-2.2C91 1 90.1 0 88.8 0s-2.2 1-2.2 2.2c0 1.2.9 2.1 2.1 2.2l-5.1 7.7-5 7.5L66.1 25h6.2v12.4H60.2v-.3c.9-.2 1.6-1.1 1.6-2.1 0-1.2-1-2.2-2.2-2.2-1.2 0-2.2 1-2.2 2.2 0 1 .7 1.9 1.7 2.1v6.4L45.3 56.1v5.4h3.9v11.1h2.1V61.4h29.4c-1.5-1.7-4.3-4.1-5.4-8.1-1-3.5.5-6.8 4.4-10.3 1.6-1.4 3.4-2.7 5-3.8l.1-.1c2-1.4 3.3-2.4 4-3.2.8.9 2.1 1.8 4 3.2l.1.1c1.6 1.1 3.4 2.4 5 3.8 3.9 3.5 5.4 6.8 4.4 10.3-1.1 4-3.9 6.4-5.4 8.1h29.4v11.1h2.1V61.4h3.9V56l-13.7-12.5zm-3.1-4.6h1.7v4.6h-1.7v-4.6zm-3.4 0h1.7v4.6h-1.7v-4.6zm-3.2 0h1.7v4.6h-1.7v-4.6zm-3.4 0h1.7v4.6h-.5l-1.3-1.3v-3.3zM75.2 25.6h27.4v11.2h-3.8c-3.6-3-7.7-6-9.2-9.2l-.7-1.4-.7 1.4c-1.5 3.2-5.7 6.2-9.2 9.2h-3.8V25.6zm28.6 13.3v1.7l-1.7-1.5v-.2h1.7zm-29.9 0h1.7v.2l-1.7 1.5v-1.7zm-3.5 0h1.7v3.3l-1.3 1.3h-.5v-4.6zm-3.3 0h1.7v4.6h-1.7v-4.6zm-3.2 0h1.7v4.6h-1.7v-4.6zm-3.4 0h1.7v4.6h-1.7v-4.6zM47 60v-2.5h23.5c.8.9 1.7 1.8 2.5 2.5H47zm55.8 0h-2.7s.3-.3.4-.5c6.6-7.7 3.2-13.4-1.5-17.7-1.7-1.5-3.6-2.9-5.2-4-2.2-1.6-4-2.9-4.2-3.7l-.8-3.6-.8 3.6c-.1.8-1.9 2.1-4.2 3.7-1.6 1.2-3.5 2.5-5.2 4-4.8 4.3-8.1 10-1.5 17.7.1.1.4.5.4.5h-2.7s-.4-.3-.6-.5C67.7 54.3 68 50 71 46c1.9-2.5 4.8-4.9 7.8-7.4 3.6-3 7.9-6 9.9-9.3 2 3.3 6.3 6.4 9.9 9.3 3 2.4 5.9 4.9 7.8 7.4 3 3.9 3.3 8.2-3.2 13.5 0 .2-.4.5-.4.5zm27.9 0h-26c.9-.8 1.8-1.6 2.5-2.5h23.5V60z"/></g></svg>