<?xml version="1.0" encoding="UTF-8" standalone="no"?>
<!-- Created with Inkscape (http://www.inkscape.org/) -->

<svg
   xmlns:dc="http://purl.org/dc/elements/1.1/"
   xmlns:cc="http://creativecommons.org/ns#"
   xmlns:rdf="http://www.w3.org/1999/02/22-rdf-syntax-ns#"
   xmlns:svg="http://www.w3.org/2000/svg"
   xmlns="http://www.w3.org/2000/svg"
   xmlns:inkscape="http://www.inkscape.org/namespaces/inkscape"
   version="1.1"
   width="99.900002"
   height="58.737499"
   id="svg2"
   xml:space="preserve"><metadata
     id="metadata8"><rdf:RDF><cc:Work
         rdf:about=""><dc:format>image/svg+xml</dc:format><dc:type
           rdf:resource="http://purl.org/dc/dcmitype/StillImage" /></cc:Work></rdf:RDF></metadata><defs
     id="defs6"><clipPath
       id="clipPath18"><path
         d="m 0,0 799,0 0,469.871 -799,0 L 0,0 z"
         inkscape:connector-curvature="0"
         id="path20" /></clipPath></defs><g
     transform="matrix(1.25,0,0,-1.25,0,58.7375)"
     id="g10"><g
       transform="scale(0.1,0.1)"
       id="g12"><g
         id="g14"><g
           clip-path="url(#clipPath18)"
           id="g16"><path
             d="m 314.949,294.84 -7.742,0 0,-20.656 7.742,0 0,20.656 z m 169.348,0 7.746,0 0,-20.656 -7.746,0 0,20.656 z m -15.067,0 7.762,0 0,-20.668 -2.121,0 -5.641,5.879 0,14.789 z m 44.735,0 7.754,0 0,-20.656 -7.754,0 0,20.656 z m -15.047,0 7.742,0 0,-20.656 -7.742,0 0,20.656 z m -168.902,0 -7.758,0 0,-20.668 2.113,0 5.645,5.879 0,14.789 z m -44.735,0 -7.758,0 0,-20.656 7.758,0 0,20.656 z m 15.047,0 -7.746,0 0,-20.656 7.746,0 0,20.656 z m 45.168,0 -7.758,0 0,-7.668 7.758,6.676 0,0.992 z m -26.82,-83.528 c 3.558,-3.953 7.043,-7.796 11.367,-11.292 l -119.824,0 0,11.292 c 36.152,0 72.304,0 108.457,0 l 0,0 z m 122.554,84.555 c -16.242,13.43 -32.617,26.977 -41.523,42.024 -8.969,-14.856 -25.227,-28.301 -41.355,-41.653 -13.379,-11.058 -26.688,-22.062 -35.243,-33.426 -13.777,-18.292 -15.043,-38.171 16.996,-62.636 3.094,-0.156 6.118,-0.164 9.125,-0.176 l 2.915,-0.012 c -30.215,35.903 -15.45,62.176 5.351,81.887 6.82,6.465 14.25,12.148 20.879,17.219 9.711,7.429 17.609,13.468 18.266,17.547 l 3.078,19.211 3.265,-19.188 c 0.633,-3.726 8.332,-9.484 17.922,-16.648 7.024,-5.258 15.032,-11.239 22.336,-18.161 20.781,-19.691 35.196,-46.062 4.805,-81.867 3.691,-0.023 7.141,0.074 11.101,0.18 32.043,24.477 30.813,44.289 17.102,62.492 -8.496,11.289 -21.707,22.211 -35.02,33.207 l 0,0 z m 145.157,-95.847 -117.157,0 c 3.946,3.382 7.958,7.32 11.368,11.292 l 105.789,0 0,-11.292 z m -132.637,94.82 7.754,0 0,-7.668 -7.754,6.676 0,0.992 z m -95.969,9.297 -20.808,0 0,50.39 121.457,0 0,-50.39 -17.075,0 c -16.082,13.347 -31.636,26.879 -38.425,41.355 l 0,0.031 -0.285,0.59 -2.911,6.121 -2.898,-6.101 -0.078,-0.172 -0.016,-0.023 c -6.879,-14.622 -22.676,-28.293 -38.961,-41.801 l 0,0 z m -87.808,-29.578 -66.2,-56.793 c 0,-8.063 0,-16.129 0,-24.192 l 22.301,0 0,-50.265 9.649,0 0,50.265 c 40.461,0 128,0 131.023,0 l -4.894,5.203 c -33.036,34.86 -19.473,59.911 0.082,78.434 6.55,6.223 13.836,11.793 20.339,16.769 l 0.227,0.168 0.129,0.094 0.09,0.074 0.226,0.172 0.028,0.02 0.191,0.148 0.156,0.117 0.071,0.051 0.214,0.164 0.055,0.051 0.164,0.121 0.18,0.145 0.039,0.027 0.219,0.164 0.086,0.066 0.34,0.262 0.003,0.004 0.219,0.168 0.113,0.082 0.106,0.082 0.215,0.168 0.015,0.016 0.2,0.148 0.132,0.106 0.289,0.222 0.043,0.035 0.168,0.125 0.164,0.129 0.047,0.039 0.207,0.161 0.079,0.054 0.132,0.11 0.192,0.148 0.019,0.016 0.211,0.16 0.098,0.074 0.105,0.09 0.207,0.16 0.008,0.004 0.195,0.152 0.129,0.098 0.078,0.063 0.2,0.16 0.039,0.031 0.168,0.133 0.144,0.117 0.055,0.039 0.199,0.16 0.063,0.047 0.136,0.113 0.176,0.137 0.028,0.016 0.195,0.16 0.086,0.066 0.113,0.09 0.195,0.156 0,0 0.196,0.157 0.105,0.085 0.09,0.071 0.188,0.156 0.027,0.02 0.172,0.136 0.129,0.11 0.054,0.047 0.192,0.156 0.047,0.039 0.14,0.113 0.156,0.133 0.036,0.023 0.187,0.157 0.067,0.058 0.117,0.094 0.176,0.144 0.011,0.008 0.18,0.153 0.098,0.086 0.085,0.066 0.176,0.152 0.024,0.016 0.164,0.141 0.113,0.097 0.063,0.055 0.179,0.148 0.035,0.036 0.141,0.117 0.137,0.117 0.039,0.035 0.176,0.149 0.058,0.05 0.113,0.098 0.157,0.141 0.015,0.011 0.168,0.153 0.086,0.066 0.086,0.082 0.168,0.152 0.008,0.004 0.16,0.145 0.102,0.086 0.062,0.058 0.164,0.153 c 1.981,1.793 3.672,3.519 4.996,5.218 1.469,-1.765 3.36,-3.589 5.567,-5.476 l 0.011,-0.016 0.055,-0.051 0.11,-0.085 0.039,-0.036 0.117,-0.101 0.168,-0.133 0.093,-0.09 0.059,-0.047 0.168,-0.14 0.039,-0.032 0.125,-0.105 0.141,-0.117 0.027,-0.02 0.164,-0.14 0.078,-0.067 0.09,-0.07 0.164,-0.141 0.024,-0.011 0.156,-0.125 0.113,-0.102 0.051,-0.039 0.176,-0.137 0.058,-0.047 0.11,-0.093 0.164,-0.137 0.011,-0.004 0.172,-0.145 0.102,-0.078 0.074,-0.054 0.18,-0.145 0.039,-0.027 0.137,-0.114 0.144,-0.117 0.039,-0.023 0.176,-0.145 0.078,-0.062 0.098,-0.078 0.183,-0.141 0.012,-0.012 0.164,-0.132 0.129,-0.098 0.059,-0.039 0.183,-0.149 0.063,-0.043 0.125,-0.101 0.168,-0.133 0.015,-0.012 0.188,-0.14 0.097,-0.078 0.086,-0.071 0.188,-0.144 0.039,-0.024 0.144,-0.117 0.161,-0.117 0.039,-0.031 0.183,-0.145 0.078,-0.062 0.118,-0.086 0.183,-0.145 0.012,-0.008 0.184,-0.14 0.128,-0.098 0.071,-0.047 0.191,-0.148 0.051,-0.043 0.144,-0.102 0.176,-0.137 0.024,-0.015 0.191,-0.149 0.102,-0.082 0.093,-0.066 0.2,-0.152 0.027,-0.02 0.168,-0.129 0.152,-0.113 0.051,-0.035 0.195,-0.153 0.078,-0.058 0.126,-0.086 0.199,-0.152 0.008,-0.004 0.195,-0.149 0.129,-0.097 0.078,-0.055 0.191,-0.156 0.063,-0.039 0.144,-0.114 0.188,-0.129 0.015,-0.019 0.207,-0.152 0.11,-0.079 0.097,-0.078 0.204,-0.156 0.031,-0.02 0.176,-0.132 0.156,-0.118 0.059,-0.039 0.203,-0.156 0.078,-0.055 0.129,-0.093 0.203,-0.16 c 6.926,-5.172 14.804,-11.063 21.758,-17.657 19.445,-18.433 32.629,-43.457 -0.125,-78.015 l -5.372,-5.633 c 43.934,0.027 88.27,0.027 132.293,0.027 l 0,-49.687 9.649,0 0,49.687 17.578,0 0,24.156 -62.383,58.149 c 0.059,0.156 0.086,0.332 0.086,0.512 l 0,24.136 c 0,0.039 -0.015,0.078 -0.015,0.121 l 0,2.372 c 4.253,1.078 7.41,4.918 7.41,9.507 0,5.434 -4.407,9.832 -9.825,9.832 -5.429,0.004 -9.835,-4.398 -9.835,-9.832 0,-4.578 3.156,-8.425 7.414,-9.504 l 0,-1.25 -54.329,0 0,55.704 27.844,0 -56.789,24.375 -22.312,33.753 -22.879,34.633 c 5.265,0.176 9.492,4.5 9.492,9.809 0,5.43 -4.402,9.824 -9.824,9.824 -5.422,0 -9.825,-4.398 -9.825,-9.824 0.004,-5.324 4.247,-9.66 9.543,-9.809 l -22.878,-34.633 -22.301,-33.75 0,0 -56.801,-24.378 29.402,0 0,-56.418 -49.183,0 0,1.531 c 4.258,1.07 7.414,4.93 7.414,9.523 0,5.426 -4.406,9.825 -9.832,9.825 l 0,0 c -5.422,0 -9.821,-4.399 -9.821,-9.825 0,-4.593 3.153,-8.453 7.415,-9.523 l 0,-1.531 -0.047,0 0,-26.5 z m -9.446,-130.672 c 0,10.207 4.145,19.453 10.84,26.14 l 0,0.032 c 6.695,6.699 15.945,10.847 26.16,10.847 10.2,0 19.453,-4.148 26.164,-10.855 l 0.008,0.008 c 6.696,-6.7 10.844,-15.95 10.844,-26.172 l -12.895,0 c 0,6.672 -2.699,12.707 -7.058,17.058 l 0,0.024 c -4.348,4.343 -10.379,7.039 -17.063,7.039 -6.66,0 -12.687,-2.696 -17.054,-7.063 l -0.004,0.012 c -4.36,-4.355 -7.055,-10.391 -7.055,-17.07 l -12.887,0 0,0 z m 207.559,0 c 0,10.207 4.141,19.453 10.84,26.14 l 0,0.032 c 6.687,6.699 15.945,10.847 26.172,10.847 10.183,0 19.445,-4.148 26.14,-10.855 l 0.024,0.008 c 6.707,-6.7 10.84,-15.95 10.84,-26.172 l -12.883,0 c 0,6.672 -2.715,12.707 -7.071,17.058 l 0,0.024 c -4.355,4.343 -10.39,7.039 -17.05,7.039 -6.668,0 -12.688,-2.696 -17.051,-7.063 l -0.02,0.012 c -4.343,-4.355 -7.058,-10.391 -7.058,-17.07 l -12.883,0 0,0 z m -104.18,0 c 0,10.207 4.145,19.453 10.844,26.14 l 0,0.032 c 6.695,6.699 15.953,10.847 26.168,10.847 10.215,0 19.465,-4.148 26.172,-10.847 6.687,-6.7 10.84,-15.95 10.84,-26.172 l -12.903,0 c 0,6.672 -2.691,12.707 -7.047,17.058 -4.367,4.367 -10.402,7.063 -17.062,7.063 -6.664,0 -12.695,-2.696 -17.063,-7.063 l -0.007,0.012 c -4.352,-4.355 -7.051,-10.391 -7.051,-17.07 l -12.891,0 0,0 z m 79.649,-75.8128 c 2.011,14.6992 -2.266,31.211 -8.379,37.5118 -3.406,3.84 -8.438,5.754 -15.059,5.754 -5.437,0 -9.875,-1.731 -13.332,-5.219 -3.465,-3.453 -5.98,-7.9179 -7.547,-13.3866 -1.57,-5.461 -2.351,-11.1133 -2.351,-16.9805 0.004,-2.668 0.144,-5.2187 0.437,-7.6797 l 46.231,0 0,0 z m -45.707,-6.8047 c 1.156,-7.2929 2.527,-13.4375 4.066,-18.4257 1.731,-5.7344 2.941,-10.2461 3.652,-13.5469 0.735,-3.2813 1.075,-7.5391 1.075,-12.7657 0,-2.9296 -0.536,-5.789 -1.621,-8.60151 1.496,-0.73438 3.496,-1.10547 5.988,-1.10547 9.375,0 16.414,2.46094 21.148,7.37498 7.27,7.5703 14.817,16.961 0.91,16.961 l 0,6.6523 42.52,0 0,-6.6523 C 465.691,30.8984 464.441,22.1094 457.305,15.3125 452.324,10.5586 446.777,6.82422 440.723,4.09375 434.668,1.35547 428.496,0 422.195,0 c -4.324,0 -9.011,0.253906 -14.004,0.742188 -5.031,0.488282 -9.226,1.269532 -12.605,2.324222 0.191,1.94531 0.297,3.35156 0.297,4.23828 0,3.86721 -0.84,7.44141 -2.52,10.69141 -1.668,3.2344 -4.133,6.8398 -7.379,10.7344 -4.972,6.1054 -8.703,11.1406 -11.187,15.0859 -2.492,3.9766 -4.172,7.5703 -5.012,10.793 -0.859,3.2109 -1.289,6.9726 -1.289,11.2968 0,12.5782 2.813,22.8047 8.457,30.6641 5.625,7.8557 12.656,13.4027 21.094,16.6717 8.406,3.262 17.07,4.91 25.945,4.91 5.422,0 11.028,-0.703 16.801,-2.105 5.828,-1.379 11.277,-3.969 16.453,-7.766 11.914,-8.7302 15.293,-26.6482 16.719,-40.2068 l 0.019,0 0,-6.8047 -76.136,0 0,0 z m -97.2,-23.625 c 0,-8.4648 0,-11.2187 0,-19.6836 C 300.52,4.66797 309.418,7.39453 314.117,6.82422 L 314.117,0 262.031,0 c 0,2.28516 0,4.55078 0,6.82422 6.145,0.2539 13.496,-1.92188 13.465,10.69528 l 0,48.6914 c 0,8.4375 0.168,16.6797 0.488,24.6875 3.196,7.7618 8.328,13.8746 15.418,18.3126 7.11,4.461 14.985,6.68 23.688,6.68 8.57,0 15.961,-1.438 22.152,-4.282 6.192,-2.871 10.863,-6.757 14.086,-11.7379 3.219,-4.9375 4.817,-10.457 4.817,-16.4649 0,-8.75 -4.172,-28.4726 -13.418,-33.0468 -4.192,-2.7617 -8.872,-4.1094 -14.004,-4.1094 -2.653,0 -4.762,0.293 -6.328,0.8789 -1.54,0.5742 -3.895,1.6875 -7.008,3.3086 -1.676,0.8398 -2.864,1.4258 -3.571,1.7891 l -11.168,-14.5821 0,0 z m 0,9.7071 10.387,13.1445 c 0.996,-0.7773 2.11,-1.4531 3.301,-1.9609 1.187,-0.5274 2.078,-0.7618 2.676,-0.7618 2.566,0 4.976,1.3985 7.218,4.2383 2.25,2.8399 3.352,13.9063 3.352,21.7383 0,7.8203 -0.941,13.9844 -2.863,18.535 -1.926,4.512 -5.52,6.785 -10.793,6.785 -3.977,0 -6.922,-1.414 -8.867,-4.246 -1.918,-2.812 -3.164,-6.3006 -3.653,-10.4099 -0.515,-4.1094 -0.758,-9.3086 -0.758,-15.5274 l 0,-31.5351 z m -80.371,20.7226 c 1.996,14.6992 -2.273,31.211 -8.382,37.5118 -3.411,3.84 -8.438,5.754 -15.063,5.754 -5.437,0 -9.867,-1.731 -13.336,-5.219 -3.457,-3.453 -5.973,-7.9179 -7.539,-13.3866 -1.57,-5.461 -2.352,-11.1133 -2.352,-16.9805 0,-2.668 0.145,-5.2187 0.434,-7.6797 l 46.238,0 0,0 z m -45.715,-6.8047 c 1.161,-7.2929 2.54,-13.4375 4.071,-18.4257 1.734,-5.7344 2.949,-10.2461 3.652,-13.5469 0.727,-3.2813 1.078,-7.5391 1.078,-12.7657 0,-2.9296 -0.543,-5.789 -1.621,-8.60151 1.488,-0.73438 3.488,-1.10547 5.973,-1.10547 9.387,0 16.422,2.46094 21.148,7.37498 7.282,7.5703 14.832,16.961 0.926,16.961 l 0,6.6523 42.512,0 0,-6.6523 C 242.418,30.8984 241.156,22.1094 234.016,15.3125 229.039,10.5586 223.496,6.82422 217.438,4.09375 211.383,1.35547 205.215,0 198.914,0 194.59,0 189.91,0.253906 184.906,0.742188 179.879,1.23047 175.684,2.01172 172.305,3.06641 c 0.191,1.94531 0.297,3.35156 0.297,4.23828 0,3.86721 -0.832,7.44141 -2.512,10.69141 -1.676,3.2344 -4.137,6.8398 -7.387,10.7344 -4.976,6.1054 -8.711,11.1406 -11.195,15.0859 -2.485,3.9766 -4.164,7.5703 -5.004,10.793 -0.859,3.2109 -1.301,6.9726 -1.301,11.2968 0,12.5782 2.82,22.8047 8.469,30.6641 5.629,7.8557 12.656,13.4027 21.094,16.6717 8.41,3.262 17.066,4.91 25.933,4.91 5.438,0 11.035,-0.703 16.821,-2.105 5.82,-1.379 11.281,-3.969 16.441,-7.766 11.93,-8.7302 15.301,-26.6482 16.719,-40.2068 l 0.027,0 0,-6.8047 -76.145,0 0,0 z M 551.008,8.61328 533.301,91.0547 c -4.121,-6.375 -7.547,-12.3711 -10.254,-18.0078 -2.735,-5.6446 -4.785,-11.2383 -6.16,-16.8242 -1.379,-5.5704 -2.082,-11.2735 -2.082,-17.1133 0,-3.4961 0.351,-8.4649 1.074,-14.8985 0.742,-6.4375 1.141,-10.4609 1.211,-12.0312 l 0,-8.1172 C 516.914,2.36328 516.145,1.23047 514.805,0.652344 513.816,0.226562 512.637,0 511.23,0 c -1.296,0 -3.25,0.226562 -5.839,0.652344 -0.989,0.089844 -2.371,0.140625 -4.239,0.140625 -2.265,0 -4.011,-0.050781 -5.214,-0.140625 -1.739,-0.203125 -2.879,-0.320313 -3.387,-0.320313 -2.004,0 -3.442,0.781249 -4.328,2.324219 -0.899,1.57031 -1.36,4.67969 -1.36,9.35545 0,7.961 1.098,15.1289 3.227,21.4727 2.129,6.3594 4.832,12.0351 8.074,17.0429 3.254,4.9805 7.988,11.6289 14.199,19.9219 6.082,8.1953 10.449,14.7188 13.086,19.4727 2.656,4.7851 4.102,9.6562 3.977,14.6091 -0.102,4.715 -9.465,4.199 -12.336,4.024 l 0,6.816 46.387,0 0,-6.816 -9.063,0 20.598,-95.2464 18.023,95.2464 -7.176,0 0,6.816 43.661,0 0,-6.816 -10.555,0 21.789,-99.94172 11.148,0 0,-6.82812 -43.464,0 0,6.82812 7.128,0 -18.339,85.36332 -15.872,-85.36332 8.594,0 0,-6.82812 -47.371,0 0,6.82812 8.43,0 0,0 z m 196.746,208.82072 -0.305,-13.543 -18.062,0 0.156,-75.317 c 5.918,-7.363 13.387,-13.269 22.398,-17.781 9.028,-4.504 17.383,-6.789 25.079,-6.789 1.875,0 4.875,0.207 8.937,0.625 5.703,0 9.324,-1.66 10.93,-5.0274 1.551,-3.3125 2.359,-8.3907 2.359,-15.1875 l 0,-61.875 c 0,-6.5703 -0.547,-11.4453 -1.641,-14.61722 -1.121,-3.21485 -2.539,-5.17969 -4.277,-5.95704 -1.707,-0.77343 -4.117,-1.18359 -7.156,-1.18359 l -113.875,0 0,13.05855 19.988,0 -0.137,190.0512 -14.375,0 c -8.183,0 -15.711,0.472 -21.191,-18.43 -2.461,-8.691 -4.551,-17.016 -6.914,-29.199 -0.84,-4.614 -1.973,-8.235 -2.727,-10.207 -0.789,-1.914 -2.371,-2.571 -4.629,-2.571 -2.656,0 -5,1.418 -5.679,4.485 -0.656,3.105 -1.125,8.426 -1.645,15.73 -0.808,12.766 -2.793,14.367 -4.676,23.321 -0.457,2.445 -6.367,14.703 -6.511,22.582 -0.102,5.265 3.133,8.988 4.297,9.824 1.179,1.094 3.992,2.082 6.336,1.961 2.351,-0.114 5.578,-1.211 6.125,-1.309 5.086,-1.457 9.304,-2.644 12.246,-2.644 l 94.949,0 0,0 z m -18.211,-203.5942 19.598,0 c 4.824,0 8.75,0.9844 11.797,2.9454 3.027,1.9765 4.542,6.789 4.542,14.4062 l 0,37.0625 c 0,1.8633 -0.042,2.9961 -0.109,3.5156 -0.066,0.4649 -0.105,1.8164 -0.105,3.9453 -0.11,5.2305 -0.746,8.8555 -1.821,10.8282 -1.082,1.9258 -4.257,4.0429 -9.507,6.2695 -9.297,4.1992 -17.422,10.4175 -24.395,18.6645 l 0,-97.6372 z m -661.1407,-0.8632 0,190.3004 -15.8711,0 c -4.5195,0 -8.1171,-0.882 -10.7929,-2.632 -2.6875,-1.7 -5.2383,-5.821 -7.6797,-12.247 -2.4336,-6.484 -4.9961,-16.535 -7.6328,-30.222 -1.2774,-6.235 -2.3203,-10.356 -3.082,-12.406 -0.754,-2.071 -2.3594,-3.043 -4.8321,-3.043 -2.8047,0 -4.6445,1.289 -5.4805,3.804 -0.8398,2.578 -1.3164,6.074 -1.4843,10.449 -0.2344,8.508 -1.6719,17.407 -4.30862,26.829 -0.64453,2.375 -2.00781,6.589 -4.08203,12.625 C 1.07422,202.5 0,206.617 0,208.832 c 0,3.039 0.917969,5.762 2.71484,8.184 1.80078,2.418 4.4336,3.609 7.91406,3.609 1.0859,0 3.2813,-0.469 6.5625,-1.445 3.2774,-0.922 6.7539,-1.746 10.4727,-2.317 3.7578,-0.613 8.75,-0.925 15.0312,-0.925 1.2774,0 2.7969,0.046 4.5547,0.156 1.7578,0.101 3.1641,0.156 4.1211,0.156 l 71.2029,0 c 1.039,0 2.481,-0.055 4.242,-0.156 1.719,-0.11 3.239,-0.156 4.434,-0.156 6.277,0 11.316,0.312 15.074,0.925 3.758,0.571 7.274,1.395 10.555,2.317 3.238,0.976 5.433,1.445 6.516,1.445 3.48,0 6.117,-1.191 7.875,-3.609 1.757,-2.368 2.675,-5.09 2.675,-8.184 0,-2.312 -0.996,-6.387 -2.992,-12.047 -2.004,-5.664 -3.398,-9.988 -4.238,-12.976 -2.762,-9.571 -4.277,-18.536 -4.563,-26.829 0,-9.519 -2.234,-14.253 -6.672,-14.253 -1.925,0 -3.363,0.82 -4.363,2.41 -0.996,1.66 -1.719,3.554 -2.195,5.781 -0.481,2.148 -1.637,7.977 -3.516,17.449 -2.242,10.656 -4.722,18.43 -7.32,23.43 -2.598,4.93 -5.559,8.082 -8.875,9.418 -3.277,1.387 -7.758,2.055 -13.309,2.055 l -10.316,0.007 0,-190.3004 19.906,0 0,-12.9766 -76.9959,0 0,12.9766 19.9062,0 0,0 z m 347.8747,248.7184 -7.429,-11.304 20.261,-4.168 -20.816,-4.285 5.164,-10.727 -9.812,5.707 -4.079,-21.391 -4.218,22.125 -12.5,-6.898 7.433,11.297 -20.261,4.172 20.824,4.285 -5.18,10.726 9.824,-5.707 4.078,21.387 4.219,-22.117 12.492,6.898 0,0"
             inkscape:connector-curvature="0"
             id="path22"
             style="fill:#d21e25;fill-opacity:1;fill-rule:evenodd;stroke:none" /></g></g></g></g></svg>