<?xml version="1.0" encoding="utf-8"?>
<!-- Generator: Adobe Illustrator 18.0.0, SVG Export Plug-In . SVG Version: 6.00 Build 0)  -->
<!DOCTYPE svg PUBLIC "-//W3C//DTD SVG 1.1//EN" "http://www.w3.org/Graphics/SVG/1.1/DTD/svg11.dtd">
<svg version="1.1" id="Layer_1" xmlns="http://www.w3.org/2000/svg" xmlns:xlink="http://www.w3.org/1999/xlink" x="0px" y="0px"
	 viewBox="0 0 178.6 104.5" enable-background="new 0 0 178.6 104.5" xml:space="preserve">
<g>
	<path fill="#EE0600" d="M171.9,53.8c-0.7,0.4-1.3,0.9-1.7,1.6c-0.4,0.7-0.6,1.5-0.6,2.2c0,0.8,0.2,1.5,0.6,2.2
		c0.4,0.7,0.9,1.3,1.6,1.6c0.7,0.4,1.4,0.6,2.2,0.6c0.8,0,1.5-0.2,2.2-0.6c0.7-0.4,1.3-0.9,1.7-1.6c0.4-0.7,0.6-1.4,0.6-2.2
		c0-0.8-0.2-1.5-0.6-2.2c-0.4-0.7-1-1.3-1.7-1.6c-0.7-0.4-1.4-0.6-2.2-0.6C173.3,53.3,172.6,53.5,171.9,53.8L171.9,53.8z
		 M175.9,54.6c0.6,0.3,1,0.8,1.3,1.3c0.3,0.6,0.5,1.2,0.5,1.8c0,0.6-0.2,1.2-0.5,1.8c-0.3,0.6-0.8,1-1.3,1.3
		c-0.6,0.3-1.2,0.5-1.8,0.5c-0.6,0-1.2-0.2-1.8-0.5c-0.6-0.3-1-0.8-1.3-1.3c-0.3-0.6-0.5-1.2-0.5-1.8c0-0.6,0.2-1.2,0.5-1.8
		c0.3-0.6,0.8-1,1.3-1.3c0.6-0.3,1.2-0.5,1.8-0.5C174.7,54.1,175.3,54.3,175.9,54.6L175.9,54.6z M173.1,60.1v-1.9h0.3
		c0.3,0,0.5,0.1,0.7,0.2c0.2,0.1,0.4,0.5,0.7,1l0.4,0.8h1.2l-0.6-1c-0.2-0.3-0.3-0.5-0.4-0.6c-0.1-0.2-0.2-0.3-0.3-0.4
		c-0.1-0.1-0.2-0.1-0.3-0.2c0.4-0.1,0.7-0.2,0.9-0.5c0.2-0.2,0.3-0.5,0.3-0.9c0-0.2-0.1-0.5-0.2-0.7c-0.1-0.2-0.3-0.4-0.4-0.5
		c-0.2-0.1-0.4-0.2-0.7-0.2c-0.1,0-0.6,0-1.5,0h-1v4.7H173.1L173.1,60.1z M173.1,56.1h0.4c0.6,0,0.9,0,1,0.1c0.1,0,0.2,0.1,0.3,0.2
		c0.1,0.1,0.1,0.2,0.1,0.4c0,0.1,0,0.3-0.1,0.4c-0.1,0.1-0.2,0.2-0.3,0.2c-0.1,0-0.5,0.1-1,0.1h-0.4V56.1L173.1,56.1z"/>
	<g>
		<path fill="#EE0600" d="M122.5,102.8l-3.9-18.3c-0.9,1.4-1.7,2.7-2.3,4c-0.6,1.3-1.1,2.5-1.4,3.7c-0.3,1.2-0.5,2.5-0.5,3.8
			c0,0.8,0.1,1.9,0.2,3.3c0.2,1.4,0.3,2.1,0.3,2.5v1.8c0,0.4-0.2,0.6-0.5,0.8c-0.2,0.1-0.5,0.1-0.8,0.1c-0.3,0-0.7-0.1-1.3-0.1
			c-0.2,0-0.5,0-0.9,0c-0.5,0-0.9,0-1.2,0c-0.4,0-0.6,0.1-0.8,0.1c-0.4,0-0.8-0.2-1-0.5c-0.2-0.4-0.3-1-0.3-2.1
			c0-1.8,0.2-3.1,0.7-4.6c0.5-1.4,1.1-2.7,1.8-3.8c0.7-1.1,1.8-2.6,3.2-4.4c1.3-1.8,2.3-3.3,2.9-4.3c0.6-1.1,0.9-2.1,0.9-3.2
			c0-1-2.1-0.9-2.7-0.9V79h10.3v1.5h-2l4.6,21.2l4-21.2h-1.6V79h9.7v1.5h-2.3l4.8,22.2h2.5v1.5h-9.7v-1.5h1.6l-4.1-19l-3.5,19h1.9
			v1.5h-10.5v-1.5H122.5L122.5,102.8z"/>
		<path fill="#EE0600" d="M15.2,101.4V59.1h-2.3h-1.2c-1,0-1.8,0.2-2.4,0.6c-0.6,0.4-1.2,1.3-1.7,2.7c-0.5,1.4-1.1,3.7-1.7,6.7
			c-0.3,1.4-0.5,2.3-0.7,2.8c-0.2,0.5-0.5,0.7-1.1,0.7c-0.6,0-1-0.3-1.2-0.8c-0.2-0.6-0.3-1.3-0.3-2.3c-0.1-1.9-0.4-3.9-1-6
			c-0.1-0.5-0.4-1.5-0.9-2.8C0.2,59.3,0,58.4,0,57.9c0-0.7,0.2-1.3,0.6-1.8c0.4-0.5,1-0.8,1.8-0.8c0.2,0,0.7,0.1,1.5,0.3
			c0.7,0.2,1.5,0.4,2.3,0.5c0.8,0.1,1.9,0.2,3.3,0.2c0.3,0,0.6,0,1,0c0.4,0,0.7,0,0.9,0h15.8c0.2,0,0.6,0,0.9,0c0.4,0,0.7,0,1,0
			c1.4,0,2.5-0.1,3.4-0.2c0.8-0.1,1.6-0.3,2.3-0.5c0.7-0.2,1.2-0.3,1.5-0.3c0.8,0,1.4,0.3,1.7,0.8c0.4,0.5,0.6,1.1,0.6,1.8
			c0,0.5-0.2,1.4-0.7,2.7c-0.4,1.3-0.8,2.2-0.9,2.9c-0.6,2.1-1,4.1-1,6c0,2.1-0.5,3.2-1.5,3.2c-0.4,0-0.7-0.2-1-0.5
			c-0.2-0.4-0.4-0.8-0.5-1.3c-0.1-0.5-0.4-1.8-0.8-3.9c-0.5-2.4-1-4.1-1.6-5.2c-0.6-1.1-1.2-1.8-2-2.1c-0.7-0.3-1.7-0.5-3-0.5h-2.3
			v42.3h4.4v2.9H10.8v-2.9H15.2L15.2,101.4z"/>
		<path fill="#EE0600" d="M96.3,96.1v1.5c3.1,0,1.4,2.1-0.2,3.8c-1.1,1.1-2.6,1.6-4.7,1.6c-0.6,0-1-0.1-1.3-0.2
			c0.2-0.6,0.4-1.3,0.4-1.9c0-1.2-0.1-2.1-0.2-2.8c-0.2-0.7-0.4-1.7-0.8-3c-0.3-1.1-0.6-2.5-0.9-4.1h16.9v-1.5h0
			c-0.3-3-1.1-7-3.7-8.9c-1.2-0.8-2.4-1.4-3.7-1.7c-1.3-0.3-2.5-0.5-3.7-0.5c-2,0-3.9,0.4-5.8,1.1c-1.9,0.7-3.4,2-4.7,3.7
			c-1.3,1.8-1.9,4-1.9,6.8c0,1,0.1,1.8,0.3,2.5c0.2,0.7,0.6,1.5,1.1,2.4c0.6,0.9,1.4,2,2.5,3.4c0.7,0.9,1.3,1.7,1.6,2.4
			c0.4,0.7,0.6,1.5,0.6,2.4c0,0.2,0,0.5-0.1,0.9c0.8,0.2,1.7,0.4,2.8,0.5c1.1,0.1,2.2,0.2,3.1,0.2c1.4,0,2.8-0.3,4.1-0.9
			c1.3-0.6,2.6-1.4,3.7-2.5c1.6-1.5,1.9-3.5,4.1-3.5v-1.5H96.3L96.3,96.1z M88.2,87.6c0-1.3,0.2-2.6,0.5-3.8c0.3-1.2,0.9-2.2,1.7-3
			c0.8-0.8,1.8-1.2,3-1.2c1.5,0,2.6,0.4,3.3,1.3c1.4,1.4,2.3,5.1,1.9,8.3H88.3C88.3,88.8,88.2,88.2,88.2,87.6L88.2,87.6z"/>
		<path fill="#EE0600" d="M78.1,82.1c-0.7-1.1-1.8-2-3.1-2.6c-1.4-0.6-3-1-4.9-1c-1.9,0-3.7,0.5-5.3,1.5c-1.6,1-2.7,2.3-3.4,4.1
			c-0.1,1.8-0.1,3.6-0.1,5.5v10.8c0,2.8-1.6,2.3-3,2.4c0,0.5,0,1,0,1.5h11.6v-1.5c-1-0.1-3,0.5-3-2.5c0-1.9,0-2.5,0-4.4l2.5-3.2
			c0.2,0.1,0.4,0.2,0.8,0.4c0.7,0.4,1.2,0.6,1.6,0.7c0.3,0.1,0.8,0.2,1.4,0.2c1.1,0,2.2-0.3,3.1-0.9c2.1-1,3-5.4,3-7.3
			C79.2,84.4,78.8,83.2,78.1,82.1L78.1,82.1z M72.1,90.5c-0.5,0.6-1,0.9-1.6,0.9c-0.1,0-0.3-0.1-0.6-0.2c-0.3-0.1-0.5-0.3-0.7-0.4
			l-2.3,2.9v-6.1v-0.9c0-1.4,0.1-2.5,0.2-3.5c0.1-0.9,0.4-1.7,0.8-2.3c0.4-0.6,1.1-0.9,2-0.9c1.2,0,2,0.5,2.4,1.5
			c0.4,1,0.6,2.4,0.6,4.1C72.8,87.4,72.6,89.9,72.1,90.5L72.1,90.5z"/>
		<path fill="#EE0600" d="M46.6,96.1v1.5c3.1,0,1.4,2.1-0.2,3.8c-1,1.1-2.6,1.6-4.7,1.6c-0.6,0-1-0.1-1.3-0.2
			c0.2-0.6,0.4-1.3,0.4-1.9c0-1.2-0.1-2.1-0.2-2.8c-0.2-0.7-0.4-1.7-0.8-3c-0.3-1.1-0.6-2.5-0.9-4.1h16.9v-1.5h0
			c-0.3-3-1.1-7-3.7-8.9c-1.1-0.8-2.4-1.4-3.7-1.7c-1.3-0.3-2.5-0.5-3.7-0.5c-2,0-3.9,0.4-5.8,1.1c-1.9,0.7-3.4,2-4.7,3.7
			c-1.3,1.8-1.9,4-1.9,6.8c0,1,0.1,1.8,0.3,2.5c0.2,0.7,0.6,1.5,1.1,2.4c0.6,0.9,1.4,2,2.5,3.4c0.7,0.9,1.3,1.7,1.6,2.4
			c0.4,0.7,0.6,1.5,0.6,2.4c0,0.2,0,0.5-0.1,0.9c0.8,0.2,1.7,0.4,2.8,0.5c1.1,0.1,2.2,0.2,3.1,0.2c1.4,0,2.8-0.3,4.1-0.9
			c1.3-0.6,2.6-1.4,3.7-2.5c1.6-1.5,1.9-3.5,4.1-3.5v-1.5H46.6L46.6,96.1z M38.6,87.6c0-1.3,0.2-2.6,0.5-3.8c0.3-1.2,0.9-2.2,1.7-3
			c0.8-0.8,1.8-1.2,3-1.2c1.5,0,2.6,0.4,3.4,1.3c1.4,1.4,2.3,5.1,1.9,8.3H38.7C38.6,88.8,38.6,88.2,38.6,87.6L38.6,87.6z"/>
		<path fill="#EE0600" d="M177.2,82.3c-0.4-0.7-1.2-1.1-2.4-1.1c-0.9,0.1-1.6,0.1-2,0.1c-1.7,0-3.6-0.5-5.6-1.5c-2-1-3.7-2.3-5-4
			l0-16.7h4l0.1-3h-21.1c-0.7,0-1.6-0.3-2.7-0.6c-0.1,0-0.8-0.3-1.4-0.3c-0.5,0-1.1,0.2-1.4,0.4c-0.3,0.2-1,1-1,2.2
			c0,1.8,1.3,4.5,1.4,5c0.4,2,0.9,2.3,1,5.2c0.1,1.6,0.2,2.8,0.4,3.5c0.2,0.7,0.7,1,1.3,1c0.5,0,0.9-0.1,1-0.6
			c0.2-0.4,0.4-1.2,0.6-2.3c0.5-2.7,1-4.6,1.5-6.5c1.2-4.2,2.9-4.1,4.7-4.1h3.2l0,42.3h-4.4v2.9h25.3c0.7,0,1.2-0.1,1.6-0.3
			c0.4-0.2,0.7-0.6,1-1.3c0.2-0.7,0.4-1.8,0.4-3.2V85.7C177.7,84.2,177.5,83.1,177.2,82.3L177.2,82.3z M170.2,97.5
			c0,1.7-0.3,2.8-1,3.2c-0.7,0.4-1.6,0.7-2.6,0.7h-4.4V79.7c1.6,1.8,3.4,3.2,5.4,4.2c1.2,0.5,1.9,1,2.1,1.4c0.2,0.4,0.4,1.2,0.4,2.4
			c0,0.5,0,0.8,0,0.9c0,0.1,0,0.4,0,0.8V97.5L170.2,97.5z"/>
	</g>
	<g>
		<path fill="#EE0600" d="M57.5,72.5c0-2.3,0.9-4.3,2.4-5.8v0c1.5-1.5,3.5-2.4,5.8-2.4c2.3,0,4.3,0.9,5.8,2.4h0
			c1.5,1.5,2.4,3.5,2.4,5.8h-2.9c0-1.5-0.6-2.8-1.6-3.8v0c-1-1-2.3-1.6-3.8-1.6c-1.5,0-2.8,0.6-3.8,1.6l0,0c-1,1-1.6,2.3-1.6,3.8
			H57.5L57.5,72.5L57.5,72.5z"/>
		<path fill="#EE0600" d="M103.7,72.5c0-2.3,0.9-4.3,2.4-5.8v0c1.5-1.5,3.5-2.4,5.8-2.4c2.3,0,4.3,0.9,5.8,2.4h0
			c1.5,1.5,2.4,3.5,2.4,5.8h-2.9c0-1.5-0.6-2.8-1.6-3.8v0c-1-1-2.3-1.6-3.8-1.6c-1.5,0-2.8,0.6-3.8,1.6h0c-1,1-1.6,2.3-1.6,3.8
			H103.7L103.7,72.5L103.7,72.5z"/>
		<path fill="#EE0600" d="M80.6,72.5c0-2.3,0.9-4.3,2.4-5.8v0c1.5-1.5,3.5-2.4,5.8-2.4c2.3,0,4.3,0.9,5.8,2.4
			c1.5,1.5,2.4,3.5,2.4,5.8h-2.9c0-1.5-0.6-2.8-1.6-3.8c-1-1-2.3-1.6-3.8-1.6c-1.5,0-2.8,0.6-3.8,1.6h0c-1,1-1.6,2.3-1.6,3.8H80.6
			L80.6,72.5L80.6,72.5z"/>
	</g>
	<polygon fill="#EE0600" points="92.6,46.3 90.9,48.8 95.4,49.7 90.8,50.7 91.9,53.1 89.8,51.8 88.8,56.5 87.9,51.6 85.1,53.2 
		86.8,50.6 82.3,49.7 86.9,48.8 85.8,46.4 87.9,47.7 88.8,42.9 89.8,47.8 92.6,46.3 	"/>
	<path fill="#EE0600" d="M118.6,43.5v-6.4c0.9-0.2,1.7-1.1,1.7-2.1c0-1.2-1-2.2-2.2-2.2c-1.2,0-2.2,1-2.2,2.2c0,1,0.7,1.9,1.6,2.1
		v0.3h-12.1V25h6.2L99,19.6l-5-7.5l-5.1-7.7c1.2,0,2.1-1,2.1-2.2C91,1,90.1,0,88.8,0s-2.2,1-2.2,2.2c0,1.2,0.9,2.1,2.1,2.2l-5.1,7.7
		l-5,7.5L66.1,25h6.2v12.4H60.2v-0.3c0.9-0.2,1.6-1.1,1.6-2.1c0-1.2-1-2.2-2.2-2.2c-1.2,0-2.2,1-2.2,2.2c0,1,0.7,1.9,1.7,2.1v6.4
		L45.3,56.1v5.4h3.9v11.1h2.1V61.4c9.8,0,19.6,0,29.4,0c-1.5-1.7-4.3-4.1-5.4-8.1c-1-3.5,0.5-6.8,4.4-10.3c1.6-1.4,3.4-2.7,5-3.8
		l0.1-0.1c2-1.4,3.3-2.4,4-3.2c0.8,0.9,2.1,1.8,4,3.2l0.1,0.1c1.6,1.1,3.4,2.4,5,3.8c3.9,3.5,5.4,6.8,4.4,10.3
		c-1.1,4-3.9,6.4-5.4,8.1c9.8,0,19.6,0,29.4,0v11.1h2.1V61.4h3.9v-5.4L118.6,43.5z M115.5,38.9h1.7v4.6h-1.7V38.9z M112.1,38.9h1.7
		v4.6h-1.7V38.9z M108.9,38.9h1.7v4.6h-1.7V38.9z M105.5,38.9h1.7v4.6h-0.5l-1.3-1.3V38.9z M75.2,25.6h27.4v11.2h-3.8
		c-3.6-3-7.7-6-9.2-9.2v0l-0.7-1.4l-0.7,1.4v0c-1.5,3.2-5.7,6.2-9.2,9.2h-3.8V25.6z M103.8,38.9v1.7l-1.7-1.5v-0.2H103.8z
		 M73.9,38.9h1.7v0.2l-1.7,1.5V38.9z M70.4,38.9h1.7v3.3l-1.3,1.3h-0.5V38.9z M67.1,38.9h1.7v4.6h-1.7V38.9z M63.9,38.9h1.7v4.6
		h-1.7V38.9z M60.5,38.9h1.7v4.6h-1.7V38.9z M47,60v-2.5h23.5c0.8,0.9,1.7,1.8,2.5,2.5H47z M102.8,60h-2.7c0,0,0.3-0.3,0.4-0.5
		c6.6-7.7,3.2-13.4-1.5-17.7c-1.7-1.5-3.6-2.9-5.2-4c-2.2-1.6-4-2.9-4.2-3.7l-0.8-3.6l-0.8,3.6c-0.1,0.8-1.9,2.1-4.2,3.7
		c-1.6,1.2-3.5,2.5-5.2,4c-4.8,4.3-8.1,10-1.5,17.7c0.1,0.1,0.4,0.5,0.4,0.5h-2.7c0,0-0.4-0.3-0.6-0.5c-6.5-5.2-6.2-9.5-3.2-13.5
		c1.9-2.5,4.8-4.9,7.8-7.4c3.6-3,7.9-6,9.9-9.3c0,0,0,0,0,0c0,0,0,0,0,0c2,3.3,6.3,6.4,9.9,9.3c3,2.4,5.9,4.9,7.8,7.4
		c3,3.9,3.3,8.2-3.2,13.5C103.2,59.7,102.8,60,102.8,60z M130.7,60h-26c0.9-0.8,1.8-1.6,2.5-2.5h23.5V60z"/>
</g>
</svg>
